<?xml version="1.0" encoding="utf-8"?>
<!-- Generator: Adobe Illustrator 27.4.0, SVG Export Plug-In . SVG Version: 6.00 Build 0)  -->
<svg version="1.1" id="Ebene_1" xmlns="http://www.w3.org/2000/svg" xmlns:xlink="http://www.w3.org/1999/xlink" x="0px" y="0px"
	 viewBox="0 0 595.276 841.89" style="enable-background:new 0 0 595.276 841.89;" xml:space="preserve">
<style type="text/css">
	.st0{fill:none;}
	.st1{fill:#1E1C36;}
	.st2{fill:url(#Rechteck_706_00000018930159224076849030000000316771782819276163_);}
	.st3{fill:url(#headphone2_00000150822421959017080450000012124323224972980654_);}
	.st4{fill:#FFFFFF;}
	.st5{enable-background:new    ;}
	.st6{clip-path:url(#SVGID_00000003062804265261851820000012364763248818330000_);}
	.st7{fill:#CCCB3A;}
	.st8{clip-path:url(#SVGID_00000065787196414680794600000005269681971710932608_);}
	.st9{clip-path:url(#SVGID_00000143595057438591667170000017998821424171592627_);}
	.st10{clip-path:url(#SVGID_00000047061800876554385350000016124287899840607156_);}
</style>
<pattern  width="3692.52" height="5001" patternUnits="userSpaceOnUse" id="pattern_3" viewBox="0.24 -5001 3692.52 5001" style="overflow:visible;">
	<g>
		<rect x="0.24" y="-5001" class="st0" width="3692.52" height="5001"/>
		
			<image style="overflow:visible;enable-background:new    ;" width="3693" height="5001" xlink:href="1EBE660A9412530E.png"  transform="matrix(1 0 0 -1 0 0)">
		</image>
	</g>
</pattern>
<circle id="Ellipse_92" class="st1" cx="149.414" cy="536.944" r="138"/>
<linearGradient id="Rechteck_706_00000034078209036180870300000005603751516902887607_" gradientUnits="userSpaceOnUse" x1="2.651" y1="842.0577" x2="1.882" y2="841.6387" gradientTransform="matrix(-367.6955 -367.6955 -367.6955 367.6955 310734.1562 -308284.5)">
	<stop  offset="0" style="stop-color:#FFFFFF"/>
	<stop  offset="1" style="stop-color:#CCCB3A"/>
</linearGradient>
<path id="Rechteck_706" style="fill:url(#Rechteck_706_00000034078209036180870300000005603751516902887607_);" d="M239.261,629.292
	L239.261,629.292c-101.536-101.536-101.536-266.159,0-367.695l0,0c101.536-101.536,266.159-101.536,367.696,0l0,0
	c101.536,101.536,101.536,266.159,0,367.695l0,0C505.421,730.829,340.798,730.829,239.261,629.292z"/>
<circle id="Ellipse_91" class="st1" cx="117.284" cy="717.519" r="11"/>
<path class="st1" d="M691.542,976.17c-1.279,0-2.56-0.488-3.535-1.465c-0.611-0.61-1.031-1.341-1.26-2.115
	c-0.074-0.227-0.392-1.168-1.023-2.718c-1.041-2.558,0.188-5.476,2.744-6.518c2.562-1.04,5.477,0.188,6.518,2.744
	c1.516,3.723,2.518,6.182,0.092,8.606C694.102,975.682,692.821,976.17,691.542,976.17z M672.913,943.862
	c-1.483,0-2.951-0.657-3.938-1.915c-5.84-7.448-12.567-14.53-19.996-21.05c-2.075-1.821-2.281-4.98-0.46-7.056
	c1.821-2.074,4.979-2.282,7.056-0.46c7.894,6.926,15.05,14.461,21.27,22.396c1.704,2.174,1.323,5.316-0.85,7.02
	C675.08,943.515,673.993,943.862,672.913,943.862z M624.764,902.266c-0.867,0-1.746-0.226-2.546-0.701
	c-8.158-4.84-16.962-9.235-26.167-13.064c-2.549-1.061-3.756-3.987-2.695-6.537c1.06-2.55,3.988-3.758,6.537-2.695
	c9.638,4.009,18.865,8.617,27.427,13.697c2.375,1.408,3.158,4.476,1.749,6.851C628.135,901.391,626.471,902.266,624.764,902.266z
	 M565.802,878.066c-0.423,0-0.853-0.054-1.281-0.167c-9.193-2.432-18.894-4.47-28.831-6.059c-2.728-0.437-4.584-3-4.148-5.727
	c0.437-2.728,3.001-4.581,5.727-4.148c10.266,1.642,20.295,3.75,29.81,6.266c2.67,0.706,4.262,3.442,3.556,6.112
	C570.04,876.585,568.016,878.066,565.802,878.066z M374.933,872.217c-0.017,0-0.033,0-0.051,0
	c-10.259-0.102-20.455-0.572-30.305-1.4c-2.752-0.231-4.795-2.649-4.563-5.401c0.232-2.752,2.654-4.787,5.401-4.563
	c9.604,0.807,19.552,1.267,29.566,1.365c2.761,0.027,4.978,2.288,4.95,5.05C379.904,870.011,377.671,872.217,374.933,872.217z
	 M408.903,871.26c-2.614,0-4.813-2.031-4.984-4.678c-0.179-2.756,1.911-5.134,4.667-5.312c5.372-0.348,10.88-0.795,16.369-1.333
	c4.533-0.443,9.068-0.834,13.479-1.159c2.769-0.215,5.151,1.865,5.354,4.618c0.203,2.754-1.864,5.151-4.618,5.354
	c-4.332,0.319-8.787,0.703-13.241,1.14c-5.6,0.548-11.218,1.005-16.699,1.358C409.121,871.257,409.012,871.26,408.903,871.26z
	 M502.729,868.19c-0.107,0-0.215-0.003-0.323-0.01c-8.607-0.549-17.562-0.827-26.615-0.827c-0.99,0-1.987,0.003-2.987,0.01
	c-0.012,0-0.023,0-0.035,0c-2.745,0-4.98-2.217-4.999-4.966c-0.019-2.762,2.205-5.016,4.966-5.034
	c1.023-0.007,2.042-0.01,3.056-0.01c9.265,0,18.434,0.285,27.252,0.847c2.756,0.176,4.848,2.553,4.672,5.309
	C507.546,866.156,505.346,868.19,502.729,868.19z M311.326,866.433c-0.294,0-0.592-0.026-0.892-0.08
	c-10.106-1.818-20.09-4.087-29.674-6.743c-2.661-0.737-4.22-3.492-3.483-6.153c0.738-2.662,3.494-4.221,6.154-3.483
	c9.288,2.574,18.97,4.773,28.774,6.538c2.718,0.489,4.524,3.089,4.035,5.807C315.806,864.735,313.699,866.433,311.326,866.433z
	 M249.932,848.883c-0.626,0-1.262-0.118-1.878-0.368c-9.499-3.854-18.791-8.227-27.618-12.994c-2.43-1.312-3.335-4.347-2.022-6.775
	c1.312-2.431,4.346-3.335,6.775-2.023c8.506,4.595,17.464,8.81,26.625,12.527c2.559,1.038,3.792,3.954,2.753,6.513
	C253.779,847.705,251.908,848.883,249.932,848.883z M194.042,818.053c-1.018,0-2.045-0.31-2.932-0.953
	c-8.306-6.025-16.255-12.569-23.627-19.449c-2.019-1.884-2.128-5.048-0.245-7.066c1.884-2.021,5.048-2.128,7.067-0.244
	c7.073,6.601,14.703,12.881,22.677,18.666c2.235,1.621,2.732,4.748,1.111,6.983C197.116,817.337,195.589,818.053,194.042,818.053z
	 M147.834,774.023c-1.478,0-2.941-0.652-3.928-1.902c-11.828-14.985-16.926-25.584-17.137-26.028
	c-1.187-2.493-0.127-5.477,2.366-6.663c2.493-1.186,5.477-0.127,6.663,2.366c0.136,0.281,4.996,10.242,15.957,24.13
	c1.711,2.168,1.34,5.312-0.827,7.022C150.011,773.672,148.919,774.023,147.834,774.023z"/>
<pattern  id="headphone2_00000013882916732625628430000001665218502360945576_" xlink:href="#pattern_3" patternTransform="matrix(0.1154 0 0 -0.1154 -5279.3779 -10890.377)">
</pattern>
<polygon id="headphone2_00000119082428304803252370000014146350110527427479_" style="fill:url(#headphone2_00000013882916732625628430000001665218502360945576_);" points="
	148.535,84.036 522.914,93.501 522.914,670.638 148.535,661.174 "/>
<g id="Gruppe_458" transform="translate(360.26 489.767)">
	<g id="Gruppe_364" transform="translate(0)">
		<g transform="matrix(1, 0, 0, 1, -360.26, -489.77)">
			<path id="Rechteck_646-2" class="st4" d="M43.024,355.449h242c13.807,0,25,11.193,25,25v88c0,13.807-11.193,25-25,25h-242
				c-13.807,0-25-11.193-25-25v-88C18.024,366.642,29.217,355.449,43.024,355.449z"/>
		</g>
	</g>
	<g id="Gruppe_368" transform="translate(18.951 18.624)">
		<g class="st5">
			<path class="st1" d="M-306.863-124.528l-1.143,1.23v3.047h-2.197v-10.664h2.197v4.834l0.967-1.326l2.717-3.508h2.703
				l-3.787,4.738l3.896,5.926h-2.615L-306.863-124.528z"/>
			<path class="st1" d="M-301.348-124.286c0-0.786,0.151-1.487,0.454-2.103s0.738-1.091,1.308-1.429
				c0.568-0.336,1.229-0.505,1.981-0.505c1.069,0,1.942,0.327,2.619,0.981c0.676,0.654,1.053,1.543,1.131,2.666l0.015,0.542
				c0,1.216-0.339,2.191-1.018,2.926c-0.679,0.735-1.589,1.103-2.732,1.103s-2.054-0.366-2.736-1.099
				c-0.681-0.732-1.021-1.729-1.021-2.988V-124.286z M-299.231-124.137c0,0.754,0.142,1.329,0.425,1.728s0.688,0.598,1.216,0.598
				c0.513,0,0.913-0.196,1.201-0.59s0.432-1.023,0.432-1.889c0-0.738-0.144-1.311-0.432-1.717s-0.693-0.609-1.216-0.609
				c-0.518,0-0.918,0.202-1.201,0.605S-299.231-124.982-299.231-124.137z"/>
			<path class="st1" d="M-288.245-122.44c0-0.259-0.128-0.463-0.384-0.612c-0.257-0.148-0.668-0.282-1.234-0.399
				c-1.885-0.395-2.827-1.195-2.827-2.402c0-0.703,0.292-1.29,0.875-1.761c0.583-0.472,1.347-0.707,2.289-0.707
				c1.006,0,1.81,0.237,2.413,0.71c0.603,0.475,0.905,1.09,0.905,1.846h-2.117c0-0.302-0.098-0.553-0.293-0.75
				c-0.195-0.198-0.5-0.297-0.916-0.297c-0.356,0-0.632,0.08-0.828,0.242c-0.195,0.16-0.293,0.365-0.293,0.615
				c0,0.234,0.111,0.423,0.333,0.567c0.222,0.144,0.597,0.269,1.125,0.373c0.527,0.105,0.972,0.224,1.333,0.355
				c1.118,0.41,1.677,1.12,1.677,2.132c0,0.723-0.31,1.307-0.93,1.754c-0.62,0.446-1.421,0.67-2.402,0.67
				c-0.664,0-1.254-0.118-1.769-0.355c-0.515-0.236-0.919-0.562-1.212-0.974c-0.293-0.413-0.439-0.858-0.439-1.337h2.007
				c0.02,0.376,0.159,0.664,0.417,0.864s0.605,0.3,1.04,0.3c0.405,0,0.711-0.076,0.919-0.23
				C-288.349-121.99-288.245-122.192-288.245-122.44z"/>
			<path class="st1" d="M-282.29-130.124v1.948h1.355v1.553h-1.355v3.955c0,0.293,0.056,0.503,0.168,0.63s0.327,0.19,0.645,0.19
				c0.234,0,0.442-0.017,0.623-0.052v1.604c-0.415,0.127-0.842,0.19-1.282,0.19c-1.484,0-2.241-0.749-2.271-2.248v-4.271h-1.157
				v-1.553h1.157v-1.948H-282.29z"/>
			<path class="st1" d="M-276.108-120.104c-1.162,0-2.108-0.356-2.838-1.069s-1.095-1.663-1.095-2.849v-0.205
				c0-0.796,0.154-1.508,0.461-2.136c0.308-0.627,0.744-1.11,1.307-1.45c0.564-0.339,1.208-0.509,1.93-0.509
				c1.084,0,1.937,0.342,2.56,1.025c0.622,0.684,0.934,1.653,0.934,2.907v0.865h-5.046c0.068,0.518,0.275,0.933,0.619,1.244
				c0.345,0.313,0.78,0.469,1.308,0.469c0.815,0,1.453-0.295,1.912-0.886l1.04,1.165c-0.317,0.449-0.747,0.799-1.289,1.051
				C-274.849-120.23-275.449-120.104-276.108-120.104z M-276.35-126.616c-0.42,0-0.761,0.143-1.021,0.427
				c-0.262,0.285-0.429,0.692-0.502,1.222h2.944v-0.169c-0.01-0.471-0.137-0.835-0.381-1.093S-275.901-126.616-276.35-126.616z"/>
			<path class="st1" d="M-269.7-128.176l0.066,0.915c0.566-0.707,1.326-1.062,2.278-1.062c0.84,0,1.465,0.247,1.875,0.739
				c0.41,0.494,0.62,1.23,0.63,2.213v5.119h-2.117v-5.068c0-0.449-0.098-0.775-0.293-0.978c-0.195-0.203-0.52-0.304-0.974-0.304
				c-0.596,0-1.042,0.254-1.34,0.762v5.588h-2.117v-7.925H-269.7z"/>
			<path class="st1" d="M-261.013-120.251h-2.124v-11.25h2.124V-120.251z"/>
			<path class="st1" d="M-259.6-124.286c0-0.786,0.151-1.487,0.454-2.103s0.738-1.091,1.308-1.429
				c0.568-0.336,1.229-0.505,1.981-0.505c1.069,0,1.942,0.327,2.619,0.981c0.676,0.654,1.053,1.543,1.131,2.666l0.015,0.542
				c0,1.216-0.339,2.191-1.018,2.926c-0.679,0.735-1.589,1.103-2.732,1.103c-1.143,0-2.054-0.366-2.736-1.099
				c-0.681-0.732-1.021-1.729-1.021-2.988V-124.286z M-257.483-124.137c0,0.754,0.142,1.329,0.425,1.728s0.688,0.598,1.216,0.598
				c0.513,0,0.913-0.196,1.201-0.59s0.432-1.023,0.432-1.889c0-0.738-0.144-1.311-0.432-1.717s-0.693-0.609-1.216-0.609
				c-0.518,0-0.918,0.202-1.201,0.605S-257.483-124.982-257.483-124.137z"/>
			<path class="st1" d="M-246.497-122.44c0-0.259-0.128-0.463-0.384-0.612c-0.257-0.148-0.668-0.282-1.234-0.399
				c-1.885-0.395-2.827-1.195-2.827-2.402c0-0.703,0.292-1.29,0.875-1.761c0.583-0.472,1.347-0.707,2.289-0.707
				c1.006,0,1.81,0.237,2.413,0.71c0.603,0.475,0.905,1.09,0.905,1.846h-2.117c0-0.302-0.098-0.553-0.293-0.75
				c-0.195-0.198-0.5-0.297-0.916-0.297c-0.356,0-0.632,0.08-0.828,0.242c-0.195,0.16-0.293,0.365-0.293,0.615
				c0,0.234,0.111,0.423,0.333,0.567c0.222,0.144,0.597,0.269,1.125,0.373c0.527,0.105,0.972,0.224,1.333,0.355
				c1.118,0.41,1.677,1.12,1.677,2.132c0,0.723-0.31,1.307-0.93,1.754c-0.62,0.446-1.421,0.67-2.402,0.67
				c-0.664,0-1.254-0.118-1.769-0.355c-0.515-0.236-0.919-0.562-1.212-0.974c-0.293-0.413-0.439-0.858-0.439-1.337h2.007
				c0.02,0.376,0.159,0.664,0.417,0.864s0.605,0.3,1.04,0.3c0.405,0,0.711-0.076,0.919-0.23
				C-246.601-121.99-246.497-122.192-246.497-122.44z"/>
			<path class="st1" d="M-239.429-120.104c-1.162,0-2.108-0.356-2.838-1.069s-1.095-1.663-1.095-2.849v-0.205
				c0-0.796,0.154-1.508,0.461-2.136c0.308-0.627,0.744-1.11,1.307-1.45c0.564-0.339,1.208-0.509,1.93-0.509
				c1.084,0,1.937,0.342,2.56,1.025c0.622,0.684,0.934,1.653,0.934,2.907v0.865h-5.046c0.068,0.518,0.275,0.933,0.619,1.244
				c0.345,0.313,0.78,0.469,1.308,0.469c0.815,0,1.453-0.295,1.912-0.886l1.04,1.165c-0.317,0.449-0.747,0.799-1.289,1.051
				C-238.169-120.23-238.77-120.104-239.429-120.104z M-239.67-126.616c-0.42,0-0.761,0.143-1.021,0.427
				c-0.262,0.285-0.429,0.692-0.502,1.222h2.944v-0.169c-0.01-0.471-0.137-0.835-0.381-1.093S-239.221-126.616-239.67-126.616z"/>
			<path class="st1" d="M-222.422-120.251h-2.197l-4.277-7.017v7.017h-2.197v-10.664h2.197l4.285,7.031v-7.031h2.19V-120.251z"/>
			<path class="st1" d="M-215.896-121.057c-0.522,0.635-1.245,0.952-2.168,0.952c-0.85,0-1.498-0.244-1.945-0.732
				c-0.446-0.488-0.675-1.203-0.685-2.146v-5.192h2.117v5.126c0,0.826,0.376,1.238,1.128,1.238c0.718,0,1.211-0.249,1.479-0.747
				v-5.617h2.124v7.925h-1.992L-215.896-121.057z"/>
			<path class="st1" d="M-209.714-130.124v1.948h1.355v1.553h-1.355v3.955c0,0.293,0.056,0.503,0.168,0.63s0.327,0.19,0.645,0.19
				c0.234,0,0.442-0.017,0.623-0.052v1.604c-0.415,0.127-0.842,0.19-1.282,0.19c-1.484,0-2.241-0.749-2.271-2.248v-4.271h-1.157
				v-1.553h1.157v-1.948H-209.714z"/>
			<path class="st1" d="M-204.749-121.958h3.875v1.707h-6.577v-1.289l3.728-4.93h-3.618v-1.706h6.35v1.247L-204.749-121.958z"/>
			<path class="st1" d="M-194.802-121.057c-0.522,0.635-1.245,0.952-2.168,0.952c-0.85,0-1.498-0.244-1.945-0.732
				c-0.446-0.488-0.675-1.203-0.685-2.146v-5.192h2.117v5.126c0,0.826,0.376,1.238,1.128,1.238c0.718,0,1.211-0.249,1.479-0.747
				v-5.617h2.124v7.925h-1.992L-194.802-121.057z"/>
			<path class="st1" d="M-189.207-128.176l0.066,0.915c0.566-0.707,1.326-1.062,2.278-1.062c0.84,0,1.465,0.247,1.875,0.739
				c0.41,0.494,0.62,1.23,0.63,2.213v5.119h-2.117v-5.068c0-0.449-0.098-0.775-0.293-0.978c-0.195-0.203-0.52-0.304-0.974-0.304
				c-0.596,0-1.042,0.254-1.34,0.762v5.588h-2.117v-7.925H-189.207z"/>
			<path class="st1" d="M-183.062-124.272c0-1.215,0.29-2.194,0.868-2.937c0.579-0.742,1.359-1.113,2.34-1.113
				c0.869,0,1.545,0.298,2.029,0.894l0.088-0.747h1.919v7.661c0,0.693-0.157,1.297-0.473,1.809
				c-0.314,0.514-0.758,0.903-1.329,1.172s-1.24,0.403-2.007,0.403c-0.581,0-1.147-0.116-1.699-0.348
				c-0.552-0.232-0.969-0.531-1.252-0.897l0.938-1.289c0.527,0.591,1.167,0.887,1.919,0.887c0.562,0,0.999-0.15,1.311-0.451
				c0.312-0.3,0.469-0.727,0.469-1.277v-0.426c-0.488,0.553-1.13,0.828-1.926,0.828c-0.952,0-1.723-0.372-2.311-1.117
				c-0.588-0.744-0.882-1.732-0.882-2.963V-124.272z M-180.945-124.114c0,0.719,0.144,1.282,0.432,1.69s0.684,0.612,1.187,0.612
				c0.645,0,1.106-0.241,1.384-0.726v-3.338c-0.283-0.484-0.74-0.726-1.37-0.726c-0.508,0-0.907,0.207-1.198,0.623
				S-180.945-124.94-180.945-124.114z"/>
		</g>
		<g class="st5">
			<path class="st1" d="M-303.787-94.872h-4.219v2.855h4.951v1.766h-7.148v-10.664h7.134v1.779h-4.937v2.542h4.219V-94.872z"/>
			<path class="st1" d="M-301.919-100.226c0-0.317,0.106-0.579,0.319-0.784c0.212-0.205,0.501-0.307,0.868-0.307
				c0.361,0,0.649,0.102,0.864,0.307s0.322,0.467,0.322,0.784c0,0.322-0.109,0.586-0.326,0.791
				c-0.218,0.205-0.504,0.308-0.861,0.308s-0.644-0.103-0.861-0.308S-301.919-99.904-301.919-100.226z M-299.67-90.251h-2.124
				v-7.925h2.124V-90.251z"/>
			<path class="st1" d="M-295.979-98.176l0.066,0.915c0.566-0.707,1.326-1.062,2.278-1.062c0.84,0,1.465,0.247,1.875,0.739
				c0.41,0.494,0.62,1.23,0.63,2.213v5.119h-2.117v-5.068c0-0.449-0.098-0.775-0.293-0.978c-0.195-0.203-0.52-0.304-0.974-0.304
				c-0.596,0-1.042,0.254-1.34,0.762v5.588h-2.117v-7.925H-295.979z"/>
			<path class="st1" d="M-288.948-90.251v-6.372h-1.179v-1.553h1.179v-0.674c0-0.889,0.255-1.578,0.766-2.069
				c0.51-0.49,1.224-0.736,2.142-0.736c0.293,0,0.652,0.05,1.077,0.146l-0.022,1.641c-0.176-0.043-0.391-0.065-0.645-0.065
				c-0.796,0-1.194,0.374-1.194,1.12v0.638h1.575v1.553h-1.575v6.372H-288.948z"/>
			<path class="st1" d="M-279.558-90.251c-0.098-0.19-0.168-0.427-0.212-0.711c-0.513,0.572-1.179,0.857-2,0.857
				c-0.776,0-1.42-0.225-1.93-0.674c-0.511-0.449-0.766-1.016-0.766-1.699c0-0.84,0.312-1.484,0.934-1.934
				c0.623-0.449,1.522-0.676,2.699-0.682h0.974v-0.453c0-0.367-0.094-0.66-0.282-0.879c-0.188-0.221-0.485-0.33-0.89-0.33
				c-0.356,0-0.636,0.086-0.838,0.256c-0.203,0.172-0.304,0.406-0.304,0.703h-2.117c0-0.458,0.142-0.883,0.425-1.273
				s0.684-0.697,1.201-0.92c0.518-0.222,1.099-0.333,1.743-0.333c0.977,0,1.751,0.245,2.325,0.736
				c0.574,0.49,0.861,1.181,0.861,2.069v3.435c0.005,0.752,0.11,1.321,0.315,1.706v0.125H-279.558z M-281.309-91.724
				c0.312,0,0.601-0.069,0.864-0.208c0.264-0.14,0.459-0.326,0.586-0.561v-1.362h-0.791c-1.06,0-1.624,0.366-1.692,1.099
				l-0.007,0.124c0,0.264,0.093,0.481,0.278,0.652S-281.631-91.724-281.309-91.724z"/>
			<path class="st1" d="M-272.813-91.811c0.391,0,0.708-0.106,0.952-0.322c0.244-0.214,0.371-0.5,0.381-0.856h1.985
				c-0.005,0.537-0.151,1.029-0.439,1.476c-0.288,0.447-0.683,0.794-1.183,1.04c-0.501,0.247-1.054,0.37-1.659,0.37
				c-1.133,0-2.026-0.36-2.681-1.08c-0.654-0.721-0.981-1.715-0.981-2.984v-0.14c0-1.221,0.325-2.194,0.974-2.923
				c0.649-0.727,1.541-1.091,2.673-1.091c0.991,0,1.786,0.282,2.384,0.846c0.598,0.564,0.902,1.315,0.912,2.253h-1.985
				c-0.01-0.413-0.137-0.748-0.381-1.006s-0.566-0.387-0.967-0.387c-0.493,0-0.866,0.181-1.117,0.54
				c-0.252,0.359-0.377,0.942-0.377,1.749v0.22c0,0.817,0.125,1.404,0.374,1.761C-273.699-91.989-273.32-91.811-272.813-91.811z"/>
			<path class="st1" d="M-266.221-97.311c0.562-0.674,1.267-1.011,2.117-1.011c1.719,0,2.59,0.999,2.615,2.995v5.076h-2.117v-5.018
				c0-0.453-0.098-0.789-0.293-1.007c-0.195-0.217-0.52-0.325-0.974-0.325c-0.62,0-1.069,0.239-1.348,0.717v5.633h-2.117v-11.25
				h2.117V-97.311z"/>
			<path class="st1" d="M-256.245-90.104c-1.162,0-2.108-0.356-2.838-1.069s-1.095-1.663-1.095-2.849v-0.205
				c0-0.796,0.154-1.508,0.461-2.136c0.308-0.627,0.744-1.11,1.307-1.45c0.564-0.339,1.208-0.509,1.93-0.509
				c1.084,0,1.937,0.342,2.56,1.025c0.622,0.684,0.934,1.653,0.934,2.907v0.865h-5.046c0.068,0.518,0.275,0.933,0.619,1.244
				c0.345,0.313,0.78,0.469,1.308,0.469c0.815,0,1.453-0.295,1.912-0.886l1.04,1.165c-0.317,0.449-0.747,0.799-1.289,1.051
				C-254.985-90.23-255.586-90.104-256.245-90.104z M-256.487-96.616c-0.42,0-0.761,0.143-1.021,0.427
				c-0.262,0.285-0.429,0.692-0.502,1.222h2.944v-0.169c-0.01-0.471-0.137-0.835-0.381-1.093S-256.038-96.616-256.487-96.616z"/>
			<path class="st1" d="M-243.962-94.155h-1.75v3.904h-2.197v-10.664h3.962c1.26,0,2.231,0.281,2.915,0.842
				c0.684,0.562,1.025,1.355,1.025,2.381c0,0.728-0.158,1.334-0.472,1.82c-0.315,0.485-0.792,0.873-1.432,1.16l2.307,4.358v0.103
				h-2.358L-243.962-94.155z M-245.713-95.934h1.772c0.552,0,0.979-0.141,1.282-0.421c0.303-0.281,0.454-0.668,0.454-1.161
				c0-0.503-0.143-0.898-0.428-1.187c-0.286-0.288-0.724-0.433-1.315-0.433h-1.765V-95.934z"/>
			<path class="st1" d="M-234.829-90.104c-1.162,0-2.108-0.356-2.838-1.069s-1.095-1.663-1.095-2.849v-0.205
				c0-0.796,0.154-1.508,0.461-2.136c0.308-0.627,0.744-1.11,1.307-1.45c0.564-0.339,1.208-0.509,1.93-0.509
				c1.084,0,1.937,0.342,2.56,1.025c0.622,0.684,0.934,1.653,0.934,2.907v0.865h-5.046c0.068,0.518,0.275,0.933,0.619,1.244
				c0.345,0.313,0.78,0.469,1.308,0.469c0.815,0,1.453-0.295,1.912-0.886l1.04,1.165c-0.317,0.449-0.747,0.799-1.289,1.051
				C-233.569-90.23-234.17-90.104-234.829-90.104z M-235.071-96.616c-0.42,0-0.761,0.143-1.021,0.427
				c-0.262,0.285-0.429,0.692-0.502,1.222h2.944v-0.169c-0.01-0.471-0.137-0.835-0.381-1.093S-234.622-96.616-235.071-96.616z"/>
			<path class="st1" d="M-230.676-94.272c0-1.215,0.29-2.194,0.868-2.937c0.579-0.742,1.359-1.113,2.34-1.113
				c0.869,0,1.545,0.298,2.029,0.894l0.088-0.747h1.919v7.661c0,0.693-0.157,1.297-0.473,1.809
				c-0.314,0.514-0.758,0.903-1.329,1.172s-1.24,0.403-2.007,0.403c-0.581,0-1.147-0.116-1.699-0.348
				c-0.552-0.232-0.969-0.531-1.252-0.897l0.938-1.289c0.527,0.591,1.167,0.887,1.919,0.887c0.562,0,0.999-0.15,1.311-0.451
				c0.312-0.3,0.469-0.727,0.469-1.277v-0.426c-0.488,0.553-1.13,0.828-1.926,0.828c-0.952,0-1.723-0.372-2.311-1.117
				c-0.588-0.744-0.882-1.732-0.882-2.963V-94.272z M-228.56-94.114c0,0.719,0.144,1.282,0.432,1.69s0.684,0.612,1.187,0.612
				c0.645,0,1.106-0.241,1.384-0.726v-3.338c-0.283-0.484-0.74-0.726-1.37-0.726c-0.508,0-0.907,0.207-1.198,0.623
				S-228.56-94.94-228.56-94.114z"/>
			<path class="st1" d="M-221.821-100.226c0-0.317,0.106-0.579,0.319-0.784c0.212-0.205,0.501-0.307,0.868-0.307
				c0.361,0,0.649,0.102,0.864,0.307s0.322,0.467,0.322,0.784c0,0.322-0.109,0.586-0.326,0.791
				c-0.218,0.205-0.504,0.308-0.861,0.308s-0.644-0.103-0.861-0.308S-221.821-99.904-221.821-100.226z M-219.573-90.251h-2.124
				v-7.925h2.124V-90.251z"/>
			<path class="st1" d="M-213.538-92.44c0-0.259-0.128-0.463-0.384-0.612c-0.257-0.148-0.668-0.282-1.234-0.399
				c-1.885-0.395-2.827-1.195-2.827-2.402c0-0.703,0.292-1.29,0.875-1.761c0.583-0.472,1.347-0.707,2.289-0.707
				c1.006,0,1.81,0.237,2.413,0.71c0.603,0.475,0.905,1.09,0.905,1.846h-2.117c0-0.302-0.098-0.553-0.293-0.75
				c-0.195-0.198-0.5-0.297-0.916-0.297c-0.356,0-0.632,0.08-0.828,0.242c-0.195,0.16-0.293,0.365-0.293,0.615
				c0,0.234,0.111,0.423,0.333,0.567c0.222,0.144,0.597,0.269,1.125,0.373c0.527,0.105,0.972,0.224,1.333,0.355
				c1.118,0.41,1.677,1.12,1.677,2.132c0,0.723-0.31,1.307-0.93,1.754c-0.62,0.446-1.421,0.67-2.402,0.67
				c-0.664,0-1.254-0.118-1.769-0.355c-0.515-0.236-0.919-0.562-1.212-0.974c-0.293-0.413-0.439-0.858-0.439-1.337h2.007
				c0.02,0.376,0.159,0.664,0.417,0.864s0.605,0.3,1.04,0.3c0.405,0,0.711-0.076,0.919-0.23
				C-213.642-91.99-213.538-92.192-213.538-92.44z"/>
			<path class="st1" d="M-207.583-100.124v1.948h1.355v1.553h-1.355v3.955c0,0.293,0.056,0.503,0.168,0.63s0.327,0.19,0.645,0.19
				c0.234,0,0.442-0.017,0.623-0.052v1.604c-0.415,0.127-0.842,0.19-1.282,0.19c-1.484,0-2.241-0.749-2.271-2.248v-4.271h-1.157
				v-1.553h1.157v-1.948H-207.583z"/>
			<path class="st1" d="M-200.596-96.19c-0.288-0.039-0.542-0.059-0.762-0.059c-0.801,0-1.326,0.271-1.575,0.812v5.186h-2.117
				v-7.925h2l0.059,0.944c0.425-0.727,1.013-1.091,1.765-1.091c0.234,0,0.454,0.032,0.659,0.095L-200.596-96.19z"/>
			<path class="st1" d="M-199.592-100.226c0-0.317,0.106-0.579,0.319-0.784c0.212-0.205,0.501-0.307,0.868-0.307
				c0.361,0,0.649,0.102,0.864,0.307s0.322,0.467,0.322,0.784c0,0.322-0.109,0.586-0.326,0.791
				c-0.218,0.205-0.504,0.308-0.861,0.308s-0.644-0.103-0.861-0.308S-199.592-99.904-199.592-100.226z M-197.344-90.251h-2.124
				v-7.925h2.124V-90.251z"/>
			<path class="st1" d="M-191.953-90.104c-1.162,0-2.108-0.356-2.838-1.069s-1.095-1.663-1.095-2.849v-0.205
				c0-0.796,0.154-1.508,0.461-2.136c0.308-0.627,0.744-1.11,1.307-1.45c0.564-0.339,1.208-0.509,1.93-0.509
				c1.084,0,1.937,0.342,2.56,1.025c0.622,0.684,0.934,1.653,0.934,2.907v0.865h-5.046c0.068,0.518,0.275,0.933,0.619,1.244
				c0.345,0.313,0.78,0.469,1.308,0.469c0.815,0,1.453-0.295,1.912-0.886l1.04,1.165c-0.317,0.449-0.747,0.799-1.289,1.051
				C-190.693-90.23-191.294-90.104-191.953-90.104z M-192.195-96.616c-0.42,0-0.761,0.143-1.021,0.427
				c-0.262,0.285-0.429,0.692-0.502,1.222h2.944v-0.169c-0.01-0.471-0.137-0.835-0.381-1.093S-191.746-96.616-192.195-96.616z"/>
			<path class="st1" d="M-183.04-96.19c-0.288-0.039-0.542-0.059-0.762-0.059c-0.801,0-1.326,0.271-1.575,0.812v5.186h-2.117v-7.925
				h2l0.059,0.944c0.425-0.727,1.013-1.091,1.765-1.091c0.234,0,0.454,0.032,0.659,0.095L-183.04-96.19z"/>
			<path class="st1" d="M-177.275-91.057c-0.522,0.635-1.245,0.952-2.168,0.952c-0.85,0-1.498-0.244-1.945-0.732
				c-0.446-0.488-0.675-1.203-0.685-2.146v-5.192h2.117v5.126c0,0.826,0.376,1.238,1.128,1.238c0.718,0,1.211-0.249,1.479-0.747
				v-5.617h2.124v7.925h-1.992L-177.275-91.057z"/>
			<path class="st1" d="M-171.68-98.176l0.066,0.915c0.566-0.707,1.326-1.062,2.278-1.062c0.84,0,1.465,0.247,1.875,0.739
				c0.41,0.494,0.62,1.23,0.63,2.213v5.119h-2.117v-5.068c0-0.449-0.098-0.775-0.293-0.978c-0.195-0.203-0.52-0.304-0.974-0.304
				c-0.596,0-1.042,0.254-1.34,0.762v5.588h-2.117v-7.925H-171.68z"/>
			<path class="st1" d="M-165.535-94.272c0-1.215,0.29-2.194,0.868-2.937c0.579-0.742,1.359-1.113,2.34-1.113
				c0.869,0,1.545,0.298,2.029,0.894l0.088-0.747h1.919v7.661c0,0.693-0.157,1.297-0.473,1.809
				c-0.314,0.514-0.758,0.903-1.329,1.172s-1.24,0.403-2.007,0.403c-0.581,0-1.147-0.116-1.699-0.348
				c-0.552-0.232-0.969-0.531-1.252-0.897l0.938-1.289c0.527,0.591,1.167,0.887,1.919,0.887c0.562,0,0.999-0.15,1.311-0.451
				c0.312-0.3,0.469-0.727,0.469-1.277v-0.426c-0.488,0.553-1.13,0.828-1.926,0.828c-0.952,0-1.723-0.372-2.311-1.117
				c-0.588-0.744-0.882-1.732-0.882-2.963V-94.272z M-163.418-94.114c0,0.719,0.144,1.282,0.432,1.69s0.684,0.612,1.187,0.612
				c0.645,0,1.106-0.241,1.384-0.726v-3.338c-0.283-0.484-0.74-0.726-1.37-0.726c-0.508,0-0.907,0.207-1.198,0.623
				S-163.418-94.94-163.418-94.114z"/>
		</g>
		<g class="st5">
			<path class="st1" d="M-307.866-60.25h-2.197v-10.664h2.197V-60.25z"/>
			<path class="st1" d="M-304.021-68.176l0.066,0.916c0.566-0.707,1.326-1.062,2.278-1.062c0.84,0,1.465,0.248,1.875,0.74
				c0.41,0.494,0.62,1.23,0.63,2.213v5.119h-2.117v-5.068c0-0.449-0.098-0.775-0.293-0.979s-0.52-0.303-0.974-0.303
				c-0.596,0-1.042,0.254-1.34,0.762v5.588h-2.117v-7.926H-304.021z"/>
			<path class="st1" d="M-295.034-70.123v1.947h1.355v1.553h-1.355v3.955c0,0.293,0.056,0.504,0.168,0.631s0.327,0.189,0.645,0.189
				c0.234,0,0.442-0.016,0.623-0.051v1.604c-0.415,0.127-0.842,0.191-1.282,0.191c-1.484,0-2.241-0.75-2.271-2.248v-4.271h-1.157
				v-1.553h1.157v-1.947H-295.034z"/>
			<path class="st1" d="M-288.853-60.104c-1.162,0-2.108-0.357-2.838-1.07s-1.095-1.662-1.095-2.848v-0.205
				c0-0.797,0.154-1.508,0.461-2.137c0.308-0.627,0.744-1.109,1.307-1.449c0.564-0.34,1.208-0.51,1.93-0.51
				c1.084,0,1.937,0.342,2.56,1.025c0.622,0.684,0.934,1.654,0.934,2.908v0.865h-5.046c0.068,0.518,0.275,0.932,0.619,1.244
				c0.345,0.312,0.78,0.469,1.308,0.469c0.815,0,1.453-0.295,1.912-0.887l1.04,1.166c-0.317,0.449-0.747,0.799-1.289,1.051
				C-287.593-60.231-288.193-60.104-288.853-60.104z M-289.094-66.616c-0.42,0-0.761,0.143-1.021,0.426
				c-0.262,0.285-0.429,0.693-0.502,1.223h2.944v-0.17c-0.01-0.471-0.137-0.834-0.381-1.092S-288.645-66.616-289.094-66.616z"/>
			<path class="st1" d="M-284.7-64.272c0-1.215,0.29-2.195,0.868-2.938c0.579-0.742,1.359-1.113,2.34-1.113
				c0.869,0,1.545,0.299,2.029,0.895l0.088-0.748h1.919v7.662c0,0.693-0.157,1.297-0.473,1.809
				c-0.314,0.514-0.758,0.902-1.329,1.172c-0.571,0.268-1.24,0.402-2.007,0.402c-0.581,0-1.147-0.115-1.699-0.348
				s-0.969-0.531-1.252-0.896l0.938-1.289c0.527,0.59,1.167,0.887,1.919,0.887c0.562,0,0.999-0.15,1.311-0.451
				s0.469-0.727,0.469-1.277v-0.426c-0.488,0.553-1.13,0.828-1.926,0.828c-0.952,0-1.723-0.373-2.311-1.117
				s-0.882-1.732-0.882-2.963V-64.272z M-282.583-64.114c0,0.719,0.144,1.281,0.432,1.689s0.684,0.613,1.187,0.613
				c0.645,0,1.106-0.242,1.384-0.727v-3.338c-0.283-0.484-0.74-0.725-1.37-0.725c-0.508,0-0.907,0.207-1.198,0.623
				S-282.583-64.94-282.583-64.114z"/>
			<path class="st1" d="M-271.377-66.19c-0.288-0.039-0.542-0.059-0.762-0.059c-0.801,0-1.326,0.27-1.575,0.812v5.186h-2.117v-7.926
				h2l0.059,0.945c0.425-0.727,1.013-1.092,1.765-1.092c0.234,0,0.454,0.033,0.659,0.096L-271.377-66.19z"/>
			<path class="st1" d="M-265.986-60.25c-0.098-0.191-0.168-0.428-0.212-0.711c-0.513,0.572-1.179,0.857-2,0.857
				c-0.776,0-1.42-0.225-1.93-0.674c-0.511-0.449-0.766-1.016-0.766-1.699c0-0.84,0.312-1.484,0.934-1.934
				c0.623-0.449,1.522-0.676,2.699-0.682h0.974v-0.453c0-0.367-0.094-0.66-0.282-0.879c-0.188-0.221-0.485-0.33-0.89-0.33
				c-0.356,0-0.636,0.086-0.838,0.256c-0.203,0.172-0.304,0.406-0.304,0.703h-2.117c0-0.459,0.142-0.883,0.425-1.273
				s0.684-0.697,1.201-0.92s1.099-0.334,1.743-0.334c0.977,0,1.751,0.246,2.325,0.736s0.861,1.182,0.861,2.07v3.434
				c0.005,0.752,0.11,1.322,0.315,1.707v0.125H-265.986z M-267.737-61.723c0.312,0,0.601-0.07,0.864-0.209s0.459-0.326,0.586-0.561
				v-1.361h-0.791c-1.06,0-1.624,0.365-1.692,1.098l-0.007,0.125c0,0.264,0.093,0.48,0.278,0.652
				C-268.313-61.809-268.059-61.723-267.737-61.723z"/>
			<path class="st1" d="M-260.003-70.123v1.947h1.355v1.553h-1.355v3.955c0,0.293,0.056,0.504,0.168,0.631s0.327,0.189,0.645,0.189
				c0.234,0,0.442-0.016,0.623-0.051v1.604c-0.415,0.127-0.842,0.191-1.282,0.191c-1.484,0-2.241-0.75-2.271-2.248v-4.271h-1.157
				v-1.553h1.157v-1.947H-260.003z"/>
			<path class="st1" d="M-257.483-70.227c0-0.316,0.106-0.578,0.319-0.783c0.212-0.205,0.501-0.307,0.868-0.307
				c0.361,0,0.649,0.102,0.864,0.307s0.322,0.467,0.322,0.783c0,0.322-0.109,0.586-0.326,0.791
				c-0.218,0.205-0.504,0.309-0.861,0.309c-0.356,0-0.644-0.104-0.861-0.309S-257.483-69.905-257.483-70.227z M-255.234-60.25
				h-2.124v-7.926h2.124V-60.25z"/>
			<path class="st1" d="M-253.821-64.286c0-0.787,0.151-1.488,0.454-2.104s0.738-1.09,1.308-1.428
				c0.568-0.336,1.229-0.506,1.981-0.506c1.069,0,1.942,0.328,2.619,0.982c0.676,0.654,1.053,1.543,1.131,2.666l0.015,0.541
				c0,1.217-0.339,2.191-1.018,2.926c-0.679,0.736-1.589,1.104-2.732,1.104s-2.054-0.367-2.736-1.1
				c-0.681-0.732-1.021-1.729-1.021-2.988V-64.286z M-251.704-64.137c0,0.754,0.142,1.33,0.425,1.729s0.688,0.598,1.216,0.598
				c0.513,0,0.913-0.197,1.201-0.59c0.288-0.395,0.432-1.023,0.432-1.889c0-0.738-0.144-1.311-0.432-1.717s-0.693-0.609-1.216-0.609
				c-0.518,0-0.918,0.201-1.201,0.605C-251.563-65.608-251.704-64.983-251.704-64.137z"/>
			<path class="st1" d="M-243.062-68.176l0.066,0.916c0.566-0.707,1.326-1.062,2.278-1.062c0.84,0,1.465,0.248,1.875,0.74
				c0.41,0.494,0.62,1.23,0.63,2.213v5.119h-2.117v-5.068c0-0.449-0.098-0.775-0.293-0.979s-0.52-0.303-0.974-0.303
				c-0.596,0-1.042,0.254-1.34,0.762v5.588h-2.117v-7.926H-243.062z"/>
			<path class="st1" d="M-232.888-70.227c0-0.316,0.106-0.578,0.319-0.783c0.212-0.205,0.501-0.307,0.868-0.307
				c0.361,0,0.649,0.102,0.864,0.307s0.322,0.467,0.322,0.783c0,0.322-0.109,0.586-0.326,0.791
				c-0.218,0.205-0.504,0.309-0.861,0.309s-0.644-0.104-0.861-0.309S-232.888-69.905-232.888-70.227z M-230.64-60.25h-2.124v-7.926
				h2.124V-60.25z"/>
			<path class="st1" d="M-226.948-68.176l0.066,0.916c0.566-0.707,1.326-1.062,2.278-1.062c0.84,0,1.465,0.248,1.875,0.74
				c0.41,0.494,0.62,1.23,0.63,2.213v5.119h-2.117v-5.068c0-0.449-0.098-0.775-0.293-0.979s-0.52-0.303-0.974-0.303
				c-0.596,0-1.042,0.254-1.34,0.762v5.588h-2.117v-7.926H-226.948z"/>
			<path class="st1" d="M-213.113-60.104c-1.162,0-2.108-0.357-2.838-1.07s-1.095-1.662-1.095-2.848v-0.205
				c0-0.797,0.154-1.508,0.461-2.137c0.308-0.627,0.744-1.109,1.307-1.449c0.564-0.34,1.208-0.51,1.93-0.51
				c1.084,0,1.937,0.342,2.56,1.025c0.622,0.684,0.934,1.654,0.934,2.908v0.865h-5.046c0.068,0.518,0.275,0.932,0.619,1.244
				c0.345,0.312,0.78,0.469,1.308,0.469c0.815,0,1.453-0.295,1.912-0.887l1.04,1.166c-0.317,0.449-0.747,0.799-1.289,1.051
				C-211.853-60.231-212.454-60.104-213.113-60.104z M-213.355-66.616c-0.42,0-0.761,0.143-1.021,0.426
				c-0.262,0.285-0.429,0.693-0.502,1.223h2.944v-0.17c-0.01-0.471-0.137-0.834-0.381-1.092S-212.905-66.616-213.355-66.616z"/>
			<path class="st1" d="M-208.667-70.227c0-0.316,0.106-0.578,0.319-0.783c0.212-0.205,0.501-0.307,0.868-0.307
				c0.361,0,0.649,0.102,0.864,0.307s0.322,0.467,0.322,0.783c0,0.322-0.109,0.586-0.326,0.791
				c-0.218,0.205-0.504,0.309-0.861,0.309s-0.644-0.104-0.861-0.309S-208.667-69.905-208.667-70.227z M-206.419-60.25h-2.124v-7.926
				h2.124V-60.25z"/>
			<path class="st1" d="M-204.983-64.272c0-1.215,0.29-2.195,0.868-2.938c0.579-0.742,1.359-1.113,2.34-1.113
				c0.869,0,1.545,0.299,2.029,0.895l0.088-0.748h1.919v7.662c0,0.693-0.157,1.297-0.473,1.809
				c-0.314,0.514-0.758,0.902-1.329,1.172c-0.571,0.268-1.24,0.402-2.007,0.402c-0.581,0-1.147-0.115-1.699-0.348
				s-0.969-0.531-1.252-0.896l0.938-1.289c0.527,0.59,1.167,0.887,1.919,0.887c0.562,0,0.999-0.15,1.311-0.451
				s0.469-0.727,0.469-1.277v-0.426c-0.488,0.553-1.13,0.828-1.926,0.828c-0.952,0-1.723-0.373-2.311-1.117
				s-0.882-1.732-0.882-2.963V-64.272z M-202.866-64.114c0,0.719,0.144,1.281,0.432,1.689s0.684,0.613,1.187,0.613
				c0.645,0,1.106-0.242,1.384-0.727v-3.338c-0.283-0.484-0.74-0.725-1.37-0.725c-0.508,0-0.907,0.207-1.198,0.623
				S-202.866-64.94-202.866-64.114z"/>
			<path class="st1" d="M-192.466-60.104c-1.162,0-2.108-0.357-2.838-1.07s-1.095-1.662-1.095-2.848v-0.205
				c0-0.797,0.154-1.508,0.461-2.137c0.308-0.627,0.744-1.109,1.307-1.449c0.564-0.34,1.208-0.51,1.93-0.51
				c1.084,0,1.937,0.342,2.56,1.025c0.622,0.684,0.934,1.654,0.934,2.908v0.865h-5.046c0.068,0.518,0.275,0.932,0.619,1.244
				c0.345,0.312,0.78,0.469,1.308,0.469c0.815,0,1.453-0.295,1.912-0.887l1.04,1.166c-0.317,0.449-0.747,0.799-1.289,1.051
				C-191.206-60.231-191.807-60.104-192.466-60.104z M-192.708-66.616c-0.42,0-0.761,0.143-1.021,0.426
				c-0.262,0.285-0.429,0.693-0.502,1.223h2.944v-0.17c-0.01-0.471-0.137-0.834-0.381-1.092S-192.258-66.616-192.708-66.616z"/>
			<path class="st1" d="M-186.057-68.176l0.066,0.916c0.566-0.707,1.326-1.062,2.278-1.062c0.84,0,1.465,0.248,1.875,0.74
				c0.41,0.494,0.62,1.23,0.63,2.213v5.119h-2.117v-5.068c0-0.449-0.098-0.775-0.293-0.979s-0.52-0.303-0.974-0.303
				c-0.596,0-1.042,0.254-1.34,0.762v5.588h-2.117v-7.926H-186.057z"/>
			<path class="st1" d="M-175.957-60.104c-1.162,0-2.108-0.357-2.838-1.07s-1.095-1.662-1.095-2.848v-0.205
				c0-0.797,0.154-1.508,0.461-2.137c0.308-0.627,0.744-1.109,1.307-1.449c0.564-0.34,1.208-0.51,1.93-0.51
				c1.084,0,1.937,0.342,2.56,1.025c0.622,0.684,0.934,1.654,0.934,2.908v0.865h-5.046c0.068,0.518,0.275,0.932,0.619,1.244
				c0.345,0.312,0.78,0.469,1.308,0.469c0.815,0,1.453-0.295,1.912-0.887l1.04,1.166c-0.317,0.449-0.747,0.799-1.289,1.051
				C-174.697-60.231-175.298-60.104-175.957-60.104z M-176.199-66.616c-0.42,0-0.761,0.143-1.021,0.426
				c-0.262,0.285-0.429,0.693-0.502,1.223h2.944v-0.17c-0.01-0.471-0.137-0.834-0.381-1.092S-175.75-66.616-176.199-66.616z"/>
			<path class="st1" d="M-159.316-63.327l1.436-7.588h2.19l-2.366,10.664h-2.212l-1.736-7.135l-1.736,7.135h-2.212l-2.366-10.664
				h2.19l1.443,7.572l1.758-7.572h1.86L-159.316-63.327z"/>
			<path class="st1" d="M-151.223-60.104c-1.162,0-2.108-0.357-2.838-1.07s-1.095-1.662-1.095-2.848v-0.205
				c0-0.797,0.154-1.508,0.461-2.137c0.308-0.627,0.744-1.109,1.307-1.449c0.564-0.34,1.208-0.51,1.93-0.51
				c1.084,0,1.937,0.342,2.56,1.025c0.622,0.684,0.934,1.654,0.934,2.908v0.865h-5.046c0.068,0.518,0.275,0.932,0.619,1.244
				c0.345,0.312,0.78,0.469,1.308,0.469c0.815,0,1.453-0.295,1.912-0.887l1.04,1.166c-0.317,0.449-0.747,0.799-1.289,1.051
				C-149.963-60.231-150.564-60.104-151.223-60.104z M-151.465-66.616c-0.42,0-0.761,0.143-1.021,0.426
				c-0.262,0.285-0.429,0.693-0.502,1.223h2.944v-0.17c-0.01-0.471-0.137-0.834-0.381-1.092S-151.016-66.616-151.465-66.616z"/>
			<path class="st1" d="M-139.622-64.139c0,1.27-0.271,2.258-0.813,2.969s-1.299,1.066-2.271,1.066c-0.859,0-1.545-0.33-2.058-0.988
				l-0.095,0.842h-1.904V-71.5h2.117v4.035c0.488-0.57,1.13-0.857,1.926-0.857c0.967,0,1.725,0.355,2.274,1.066
				c0.55,0.711,0.824,1.711,0.824,3V-64.139z M-141.738-64.293c0-0.801-0.127-1.387-0.381-1.754
				c-0.254-0.369-0.632-0.553-1.135-0.553c-0.674,0-1.138,0.275-1.392,0.826v3.129c0.259,0.557,0.728,0.834,1.406,0.834
				c0.684,0,1.133-0.336,1.348-1.01C-141.79-63.143-141.738-63.635-141.738-64.293z"/>
			<path class="st1" d="M-134.026-62.44c0-0.26-0.128-0.463-0.384-0.613c-0.257-0.148-0.668-0.281-1.234-0.398
				c-1.885-0.395-2.827-1.195-2.827-2.402c0-0.703,0.292-1.291,0.875-1.762s1.347-0.707,2.289-0.707c1.006,0,1.81,0.238,2.413,0.711
				c0.603,0.475,0.905,1.09,0.905,1.846h-2.117c0-0.303-0.098-0.553-0.293-0.75c-0.195-0.199-0.5-0.297-0.916-0.297
				c-0.356,0-0.632,0.08-0.828,0.242c-0.195,0.16-0.293,0.365-0.293,0.615c0,0.234,0.111,0.422,0.333,0.566s0.597,0.27,1.125,0.373
				c0.527,0.105,0.972,0.225,1.333,0.355c1.118,0.41,1.677,1.121,1.677,2.133c0,0.723-0.31,1.307-0.93,1.754
				c-0.62,0.445-1.421,0.67-2.402,0.67c-0.664,0-1.254-0.119-1.769-0.355s-0.919-0.562-1.212-0.975s-0.439-0.857-0.439-1.336h2.007
				c0.02,0.375,0.159,0.664,0.417,0.863c0.259,0.201,0.605,0.301,1.04,0.301c0.405,0,0.711-0.076,0.919-0.23
				C-134.13-61.991-134.026-62.192-134.026-62.44z"/>
			<path class="st1" d="M-130.62-70.227c0-0.316,0.106-0.578,0.319-0.783c0.212-0.205,0.501-0.307,0.868-0.307
				c0.361,0,0.649,0.102,0.864,0.307s0.322,0.467,0.322,0.783c0,0.322-0.109,0.586-0.326,0.791
				c-0.218,0.205-0.504,0.309-0.861,0.309s-0.644-0.104-0.861-0.309S-130.62-69.905-130.62-70.227z M-128.372-60.25h-2.124v-7.926
				h2.124V-60.25z"/>
			<path class="st1" d="M-124.094-70.123v1.947h1.355v1.553h-1.355v3.955c0,0.293,0.056,0.504,0.168,0.631s0.327,0.189,0.645,0.189
				c0.234,0,0.442-0.016,0.623-0.051v1.604c-0.415,0.127-0.842,0.191-1.282,0.191c-1.484,0-2.241-0.75-2.271-2.248v-4.271h-1.157
				v-1.553h1.157v-1.947H-124.094z"/>
			<path class="st1" d="M-117.913-60.104c-1.162,0-2.108-0.357-2.838-1.07s-1.095-1.662-1.095-2.848v-0.205
				c0-0.797,0.154-1.508,0.461-2.137c0.308-0.627,0.744-1.109,1.307-1.449c0.564-0.34,1.208-0.51,1.93-0.51
				c1.084,0,1.937,0.342,2.56,1.025c0.622,0.684,0.934,1.654,0.934,2.908v0.865h-5.046c0.068,0.518,0.275,0.932,0.619,1.244
				c0.345,0.312,0.78,0.469,1.308,0.469c0.815,0,1.453-0.295,1.912-0.887l1.04,1.166c-0.317,0.449-0.747,0.799-1.289,1.051
				C-116.653-60.231-117.253-60.104-117.913-60.104z M-118.154-66.616c-0.42,0-0.761,0.143-1.021,0.426
				c-0.262,0.285-0.429,0.693-0.502,1.223h2.944v-0.17c-0.01-0.471-0.137-0.834-0.381-1.092S-117.705-66.616-118.154-66.616z"/>
		</g>
		<g class="st5">
			<path class="st1" d="M-304.673-33.049c0-0.414-0.146-0.732-0.439-0.955s-0.82-0.457-1.582-0.703s-1.365-0.49-1.809-0.729
				c-1.211-0.654-1.816-1.535-1.816-2.645c0-0.576,0.162-1.09,0.487-1.541c0.324-0.453,0.791-0.805,1.398-1.059
				c0.608-0.254,1.291-0.381,2.047-0.381c0.762,0,1.44,0.137,2.036,0.414c0.596,0.275,1.058,0.664,1.388,1.168
				c0.329,0.502,0.494,1.074,0.494,1.713h-2.197c0-0.488-0.154-0.867-0.461-1.139s-0.74-0.406-1.296-0.406
				c-0.537,0-0.955,0.113-1.252,0.34c-0.298,0.229-0.447,0.527-0.447,0.898c0,0.346,0.174,0.637,0.523,0.871s0.863,0.455,1.542,0.66
				c1.25,0.375,2.161,0.842,2.732,1.398s0.857,1.25,0.857,2.08c0,0.922-0.349,1.646-1.047,2.172
				c-0.698,0.523-1.638,0.787-2.82,0.787c-0.82,0-1.567-0.15-2.241-0.451s-1.188-0.711-1.542-1.234
				c-0.354-0.521-0.531-1.127-0.531-1.816h2.205c0,1.178,0.703,1.766,2.109,1.766c0.522,0,0.93-0.105,1.223-0.318
				S-304.673-32.668-304.673-33.049z"/>
			<path class="st1" d="M-296.375-31.057c-0.522,0.635-1.245,0.953-2.168,0.953c-0.85,0-1.498-0.244-1.945-0.732
				c-0.446-0.488-0.675-1.203-0.685-2.146v-5.193h2.117v5.127c0,0.826,0.376,1.238,1.128,1.238c0.718,0,1.211-0.25,1.479-0.748
				v-5.617h2.124v7.926h-1.992L-296.375-31.057z"/>
			<path class="st1" d="M-285.593-34.139c0,1.221-0.277,2.197-0.832,2.932c-0.554,0.736-1.302,1.104-2.245,1.104
				c-0.801,0-1.448-0.279-1.941-0.836v3.736h-2.117v-10.973h1.963l0.073,0.777c0.513-0.615,1.182-0.924,2.007-0.924
				c0.977,0,1.736,0.361,2.278,1.084s0.813,1.719,0.813,2.988V-34.139z M-287.71-34.293c0-0.738-0.131-1.307-0.392-1.707
				c-0.262-0.4-0.641-0.6-1.139-0.6c-0.664,0-1.121,0.254-1.37,0.762v3.244c0.259,0.521,0.72,0.783,1.384,0.783
				C-288.215-31.811-287.71-32.639-287.71-34.293z"/>
			<path class="st1" d="M-277.148-34.139c0,1.221-0.277,2.197-0.832,2.932c-0.554,0.736-1.302,1.104-2.245,1.104
				c-0.801,0-1.448-0.279-1.941-0.836v3.736h-2.117v-10.973h1.963l0.073,0.777c0.513-0.615,1.182-0.924,2.007-0.924
				c0.977,0,1.736,0.361,2.278,1.084s0.813,1.719,0.813,2.988V-34.139z M-279.265-34.293c0-0.738-0.131-1.307-0.392-1.707
				c-0.262-0.4-0.641-0.6-1.139-0.6c-0.664,0-1.121,0.254-1.37,0.762v3.244c0.259,0.521,0.72,0.783,1.384,0.783
				C-279.771-31.811-279.265-32.639-279.265-34.293z"/>
			<path class="st1" d="M-276.167-34.286c0-0.787,0.151-1.488,0.454-2.104s0.738-1.09,1.308-1.428
				c0.568-0.336,1.229-0.506,1.981-0.506c1.069,0,1.942,0.328,2.619,0.982c0.676,0.654,1.053,1.543,1.131,2.666l0.015,0.541
				c0,1.217-0.339,2.191-1.018,2.926c-0.679,0.736-1.589,1.104-2.732,1.104s-2.054-0.367-2.736-1.1
				c-0.681-0.732-1.021-1.729-1.021-2.988V-34.286z M-274.05-34.137c0,0.754,0.142,1.33,0.425,1.729s0.688,0.598,1.216,0.598
				c0.513,0,0.913-0.197,1.201-0.59c0.288-0.395,0.432-1.023,0.432-1.889c0-0.738-0.144-1.311-0.432-1.717s-0.693-0.609-1.216-0.609
				c-0.518,0-0.918,0.201-1.201,0.605C-273.909-35.608-274.05-34.983-274.05-34.137z"/>
			<path class="st1" d="M-262.903-36.19c-0.288-0.039-0.542-0.059-0.762-0.059c-0.801,0-1.326,0.27-1.575,0.812v5.186h-2.117v-7.926
				h2l0.059,0.945c0.425-0.727,1.013-1.092,1.765-1.092c0.234,0,0.454,0.033,0.659,0.096L-262.903-36.19z"/>
			<path class="st1" d="M-258.984-40.123v1.947h1.355v1.553h-1.355v3.955c0,0.293,0.056,0.504,0.168,0.631s0.327,0.189,0.645,0.189
				c0.234,0,0.442-0.016,0.623-0.051v1.604c-0.415,0.127-0.842,0.191-1.282,0.191c-1.484,0-2.241-0.75-2.271-2.248v-4.271h-1.157
				v-1.553h1.157v-1.947H-258.984z"/>
		</g>
		<g id="Gruppe_358" transform="translate(0 3.197)">
			<g id="Gruppe_126" transform="translate(0 0)">
				<g>
					<defs>
						<rect id="SVGID_1_" x="-342.586" y="-134.251" width="18.242" height="12.584"/>
					</defs>
					<clipPath id="SVGID_00000115488519881816878300000013579940912000657560_">
						<use xlink:href="#SVGID_1_"  style="overflow:visible;"/>
					</clipPath>
					<g id="Gruppe_125" style="clip-path:url(#SVGID_00000115488519881816878300000013579940912000657560_);">
						<path id="Pfad_1129" class="st7" d="M-325.651-134.251c-0.327,0.01-0.637,0.147-0.864,0.383
							c-3.077,3.084-6.156,6.163-9.237,9.238l-4.771-3.976c-0.534-0.445-1.327-0.372-1.772,0.162
							c-0.445,0.534-0.372,1.327,0.162,1.772c0,0,0,0,0,0l5.654,4.712c0.501,0.42,1.24,0.385,1.7-0.079
							c3.349-3.356,6.7-6.692,10.052-10.052c0.5-0.481,0.515-1.276,0.034-1.776C-324.942-134.126-325.291-134.266-325.651-134.251z"
							/>
					</g>
				</g>
			</g>
		</g>
		<g id="Gruppe_365" transform="translate(0 32.224)">
			<g id="Gruppe_126-2" transform="translate(0 0)">
				<g>
					<defs>
						
							<rect id="SVGID_00000063600218996904184460000004768378408773260701_" x="-342.586" y="-134.251" width="18.242" height="12.584"/>
					</defs>
					<clipPath id="SVGID_00000139264589304744689090000010482094437729576891_">
						<use xlink:href="#SVGID_00000063600218996904184460000004768378408773260701_"  style="overflow:visible;"/>
					</clipPath>
					<g id="Gruppe_125-2" style="clip-path:url(#SVGID_00000139264589304744689090000010482094437729576891_);">
						<path id="Pfad_1129-2" class="st7" d="M-325.651-134.251c-0.327,0.01-0.637,0.147-0.864,0.383
							c-3.077,3.084-6.156,6.163-9.237,9.238l-4.771-3.976c-0.534-0.445-1.327-0.372-1.772,0.162
							c-0.445,0.534-0.372,1.327,0.162,1.772c0,0,0,0,0,0l5.654,4.712c0.501,0.42,1.24,0.385,1.7-0.079
							c3.349-3.356,6.7-6.692,10.052-10.052c0.5-0.481,0.515-1.276,0.034-1.776C-324.942-134.126-325.291-134.266-325.651-134.251z"
							/>
					</g>
				</g>
			</g>
		</g>
		<g id="Gruppe_396" transform="translate(0 61.496)">
			<g id="Gruppe_126-3" transform="translate(0 0)">
				<g>
					<defs>
						
							<rect id="SVGID_00000053538165763369249450000000853540571447488166_" x="-342.586" y="-134.251" width="18.242" height="12.584"/>
					</defs>
					<clipPath id="SVGID_00000078733390477099446700000015294455309695678860_">
						<use xlink:href="#SVGID_00000053538165763369249450000000853540571447488166_"  style="overflow:visible;"/>
					</clipPath>
					<g id="Gruppe_125-3" style="clip-path:url(#SVGID_00000078733390477099446700000015294455309695678860_);">
						<path id="Pfad_1129-3" class="st7" d="M-325.651-134.251c-0.327,0.01-0.637,0.147-0.864,0.383
							c-3.077,3.084-6.156,6.163-9.237,9.238l-4.771-3.976c-0.534-0.445-1.327-0.372-1.772,0.162s-0.372,1.327,0.162,1.772
							c0,0,0,0,0,0l5.654,4.712c0.501,0.42,1.24,0.385,1.7-0.079c3.349-3.356,6.7-6.692,10.052-10.052
							c0.5-0.481,0.515-1.276,0.034-1.776C-324.942-134.126-325.291-134.266-325.651-134.251z"/>
					</g>
				</g>
			</g>
		</g>
		<g id="Gruppe_397" transform="translate(0 90.769)">
			<g id="Gruppe_126-4" transform="translate(0 0)">
				<g>
					<defs>
						
							<rect id="SVGID_00000172429784648983077460000011724505597627015613_" x="-342.586" y="-134.251" width="18.242" height="12.584"/>
					</defs>
					<clipPath id="SVGID_00000140003230410159744920000011585085334687742622_">
						<use xlink:href="#SVGID_00000172429784648983077460000011724505597627015613_"  style="overflow:visible;"/>
					</clipPath>
					<g id="Gruppe_125-4" style="clip-path:url(#SVGID_00000140003230410159744920000011585085334687742622_);">
						<path id="Pfad_1129-4" class="st7" d="M-325.651-134.251c-0.327,0.01-0.637,0.147-0.864,0.383
							c-3.077,3.084-6.156,6.163-9.237,9.238l-4.771-3.976c-0.534-0.445-1.327-0.372-1.772,0.162
							c-0.445,0.534-0.372,1.327,0.162,1.772c0,0,0,0,0,0l5.654,4.712c0.501,0.42,1.24,0.385,1.7-0.079
							c3.349-3.356,6.7-6.692,10.052-10.052c0.5-0.481,0.515-1.276,0.034-1.776C-324.942-134.126-325.291-134.266-325.651-134.251z"
							/>
					</g>
				</g>
			</g>
		</g>
	</g>
</g>
</svg>
