<svg xmlns="http://www.w3.org/2000/svg" width="209.527" height="49.896" viewBox="0 0 209.527 49.896">
  <g id="logo_fundoo_rgb_negativ" data-name="logo fundoo rgb negativ" transform="translate(0.02 0.03)">
    <path id="Pfad_134" data-name="Pfad 134" d="M101.9,132.925c-2.835-3.27-4.4-8.646-4.4-15.132s1.565-11.862,4.4-15.132l.255-.3-.425-.09a5.041,5.041,0,0,0-3.72.71c-2.56,1.585-4.451,5.356-5.191,10.336h0a34.845,34.845,0,0,0,0,8.936c.74,5,2.63,8.741,5.191,10.331a5.175,5.175,0,0,0,2.74.815,4.851,4.851,0,0,0,1-.1l.425-.09Zm7.741-15.137c0,11.5-5.106,20.443-11.877,20.443s-11.877-8.941-11.877-20.443,5.106-20.173,11.877-20.173,11.877,8.676,11.877,20.173m.635-17.447c-3.31-4.826-7.756-7.5-12.5-7.5s-9.2,2.655-12.5,7.5a32.937,32.937,0,0,0,0,34.895c3.31,4.826,7.756,7.5,12.5,7.5s9.2-2.655,12.5-7.5a32.937,32.937,0,0,0,0-34.895m18.177,17.447a30.942,30.942,0,0,0-5-17.447c-3.23-4.686-8.106-7.5-13.077-7.5h-.64l-1.1.08,1,.41c8.381,3.45,13.077,11.942,13.222,23.918v1.065c-.145,11.972-4.841,20.463-13.222,23.913l-1,.41,1.11.055h.64c4.971,0,9.856-2.8,13.077-7.5a31.067,31.067,0,0,0,5-17.447" transform="translate(-80.29 -92.87)" fill="#9f00ff"/>
    <path id="Pfad_135" data-name="Pfad 135" d="M215.291,142.7V123.782h6.156a.78.78,0,0,0,.78-.78v-2.525a.785.785,0,0,0-.78-.78h-6.156v-1.865a5.169,5.169,0,0,1,.735-3.09,3.022,3.022,0,0,1,2.58-.935h3.285a.78.78,0,0,0,.78-.78V110.5a.78.78,0,0,0-.78-.78h-3.375c-2.755,0-4.781.705-6,2.09a8.5,8.5,0,0,0-1.84,5.8V119.7H206.61a.78.78,0,0,0-.78.78V123a.78.78,0,0,0,.78.78h4.066V142.7a.785.785,0,0,0,.785.78h3.06a.78.78,0,0,0,.78-.78" transform="translate(-143.062 -101.309)" fill="#1e1c36"/>
    <path id="Pfad_136" data-name="Pfad 136" d="M261.937,152.673v-2.08a6.061,6.061,0,0,1-2.56,2.35,10.061,10.061,0,0,1-4.536.955,8.447,8.447,0,0,1-6.791-2.85,11.223,11.223,0,0,1-2.39-7.5v-13.1a.78.78,0,0,1,.78-.78h3.19a.78.78,0,0,1,.78.78v12.887c0,4.321,1.81,6.426,5.536,6.426a5.556,5.556,0,0,0,4.271-1.7,6.717,6.717,0,0,0,1.58-4.731V130.45a.78.78,0,0,1,.78-.78h3.19a.78.78,0,0,1,.78.78v22.223a.78.78,0,0,1-.78.78h-3.055a.78.78,0,0,1-.78-.78" transform="translate(-162.974 -111.283)" fill="#1e1c36"/>
    <path id="Pfad_137" data-name="Pfad 137" d="M311.246,128.777a8.626,8.626,0,0,1,6.876,2.85,11,11,0,0,1,2.435,7.441v13.157a.78.78,0,0,1-.78.78h-3.19a.785.785,0,0,1-.78-.78V139.333a7.044,7.044,0,0,0-1.475-4.761,5.284,5.284,0,0,0-4.2-1.665,5.631,5.631,0,0,0-4.291,1.7,6.68,6.68,0,0,0-1.6,4.731v12.892a.78.78,0,0,1-.78.78h-3.19a.785.785,0,0,1-.78-.78V130a.785.785,0,0,1,.78-.78h3.06a.785.785,0,0,1,.78.78v1.97a9.941,9.941,0,0,1,2.675-2.23,9.7,9.7,0,0,1,4.461-.965" transform="translate(-189.886 -110.835)" fill="#1e1c36"/>
    <path id="Pfad_138" data-name="Pfad 138" d="M368.117,113.16v10.426a9.151,9.151,0,0,0-6.871-3A8.643,8.643,0,0,0,354,123.761a13.145,13.145,0,0,0-2.605,7.821l-.045,1.355.045,1.34a13.444,13.444,0,0,0,2.58,7.836c1.58,2.06,4.061,3.155,7.266,3.155a8.459,8.459,0,0,0,7-3.175v1.945a.78.78,0,0,0,.78.78h3a.78.78,0,0,0,.78-.78V113.16a.78.78,0,0,0-.78-.78h-3.145a.78.78,0,0,0-.78.78m-11.922,18.482a9.076,9.076,0,0,1,1.5-5.066,5.125,5.125,0,0,1,4.4-1.865,5.319,5.319,0,0,1,4.391,1.855,7.3,7.3,0,0,1,1.64,4.5c.03.32.045.89.045,1.705a15.45,15.45,0,0,1-.045,1.675,8.356,8.356,0,0,1-1.625,4.731,5.144,5.144,0,0,1-4.4,1.935c-4,0-6-2.685-6-8.2Z" transform="translate(-215.812 -102.639)" fill="#1e1c36"/>
    <path id="Pfad_139" data-name="Pfad 139" d="M423.107,131.635a11.894,11.894,0,0,0-15.462,0,11.037,11.037,0,0,0-2.96,7.566l-.045,1.925.045,1.915A11.155,11.155,0,0,0,407.6,150.6c1.815,1.89,4.436,2.86,7.776,2.86s5.956-.96,7.776-2.86a11.128,11.128,0,0,0,2.915-7.536c.06-.66.09-1.31.09-1.94s-.03-1.285-.09-1.925a11.035,11.035,0,0,0-2.96-7.556m-13.712,7.8a7.55,7.55,0,0,1,1.71-4.966,6.221,6.221,0,0,1,8.541,0,7.591,7.591,0,0,1,1.715,5c0,.205.045.655.045,1.655a12.486,12.486,0,0,1-.045,1.675,7.525,7.525,0,0,1-1.715,4.966,6.221,6.221,0,0,1-8.541,0,7.551,7.551,0,0,1-1.71-4.966l-.045-1.67Z" transform="translate(-242.454 -110.838)" fill="#1e1c36"/>
    <path id="Pfad_140" data-name="Pfad 140" d="M477.673,139.191a11.035,11.035,0,0,0-2.96-7.556,11.894,11.894,0,0,0-15.462,0,11.061,11.061,0,0,0-2.965,7.561l-.045,1.925.045,1.92A11.155,11.155,0,0,0,459.2,150.6c1.815,1.89,4.436,2.86,7.776,2.86s5.956-.96,7.776-2.86a11.127,11.127,0,0,0,2.915-7.536c.06-.66.09-1.315.09-1.94s-.03-1.285-.09-1.925m-16.672.25a7.575,7.575,0,0,1,1.71-4.971,6.226,6.226,0,0,1,8.541,0,7.608,7.608,0,0,1,1.715,5c0,.205.045.665.045,1.655a12.629,12.629,0,0,1-.045,1.675,7.55,7.55,0,0,1-1.71,4.966,6.226,6.226,0,0,1-8.541,0,7.524,7.524,0,0,1-1.71-4.966l-.045-1.67Z" transform="translate(-268.251 -110.838)" fill="#1e1c36"/>
  </g>
</svg>
